<?xml version="1.0" encoding="UTF-8"?>
<svg width="1190px" height="400px" viewBox="0 0 1190 400" xmlns="http://www.w3.org/2000/svg" xmlns:xlink="http://www.w3.org/1999/xlink" version="1.1">
 <!-- Generated by Pixelmator Pro 2.1.1 -->
 <g id="group">
  <g id="New-Group">
   <path id="Path" d="M488 86 L488 104 505.5 104 523 104 523 86 523 68 505.5 68 488 68 Z" fill="#1b75bb" fill-opacity="1" stroke="none"/>
   <path id="Path-1" d="M556 170 L556 272 567.5 272 579 272 579 170 579 68 567.5 68 556 68 Z" fill="#bec1d4" fill-opacity="1" stroke="none"/>
   <path id="Path-2" d="M858.7 68.7 C858.3 69 858 87.4 858 109.6 L858 149.9 852.5 144 C842.8 133.9 829.8 129 812.5 129 794.5 129 782.2 133.8 770.4 145.6 762.2 153.7 756.4 164.3 752.9 177.5 749.7 189.2 749.7 211.9 752.8 224.5 760.7 256.4 783.1 275 813.5 275 833.1 275 850 267.4 856 256.1 L857.9 252.5 858 262.2 858 272 869.5 272 881 272 881 170 881 68 870.2 68 C864.2 68 859 68.3 858.7 68.7 Z M827.8 150.4 C841.6 154.1 851.5 164.7 856.4 181 859 189.4 859.6 206.8 857.7 216.9 852.6 243.4 833.6 258.2 809.8 254.2 793.2 251.3 781.5 239.7 776.4 221 774 212.4 774 192.3 776.3 182.7 781.7 160.9 795.2 149.1 815 149 819.1 149 824.9 149.7 827.8 150.4 Z" fill="#bec1d4" fill-opacity="1" stroke="none"/>
   <path id="Path-3" d="M35 86 L35 102.9 91.3 103.2 147.5 103.5 153 106.1 C161.2 110 166.5 115.1 170.2 122.8 L173.5 129.5 173.5 173 173.5 216.5 170.7 222.2 C167.1 229.5 158.8 237.2 151.5 239.9 146.1 241.9 144.1 242 90.5 242 L35 242 35 259.5 35 277.1 105.8 276.8 176.5 276.5 182.1 274.2 C194.6 269.2 205.2 258.6 210.2 246.2 L212.5 240.5 212.8 176.5 C213 131.2 212.8 110.8 212 106.5 208.8 90.2 195.9 75.9 179.9 70.9 174.2 69.1 169.7 69 104.4 69 L35 69 Z" fill="#1b75bb" fill-opacity="1" stroke="none"/>
   <path id="Path-4" d="M248 86.5 L248 104 265.5 104 283 104 283 86.5 283 69 265.5 69 248 69 Z" fill="#1b75bb" fill-opacity="1" stroke="none"/>
   <path id="Path-5" d="M369.8 102 C356.5 104.3 344.9 110.2 334.3 120.4 321.5 132.5 313.3 146 308.9 162.5 307 169.2 306.7 173.2 306.7 187 306.7 200.8 307 204.8 308.9 211.5 313.4 228.1 321.7 241.8 334.4 253.7 349.8 268.1 369.3 274.5 389.9 272 405.2 270 417.7 264.4 429.2 254.1 432.3 251.3 435 249 435.3 249 436.2 249 433.9 260.2 431.8 265.7 424.3 285.9 407.2 298 386.2 298 373.7 298 360.5 292.2 354.7 284.2 L351.7 280 330.3 280 309 280 311.1 285.2 C321.6 311.9 344.7 328.8 375.3 332.2 388.2 333.7 402.3 332.3 413.8 328.4 439.9 319.8 459.3 296.8 466.6 266 468.2 259.2 468.4 251.1 468.7 182.7 L469.1 107 451.5 107 434 107 434 115.6 434 124.2 428.8 119.4 C412.3 104.6 391.4 98.4 369.8 102 Z M405.1 139.7 C416.8 145.2 424.9 154.5 429.7 168.1 431.8 174.1 432.3 177.4 432.4 185.5 432.5 197.4 431 204.1 426.3 213.2 417.5 230.1 402 239 384.1 237.7 365.3 236.3 349.7 221.8 344.4 201 342.2 192.2 342.9 175.8 345.8 167.7 351 153.2 362.2 141.6 375.3 137.4 378 136.5 383 136.1 389 136.3 397.2 136.5 399.4 137 405.1 139.7 Z" fill="#1b75bb" fill-opacity="1" stroke="none"/>
   <path id="Path-6" d="M248 197 L248 272 265.5 272 283 272 283 197 283 122 265.5 122 248 122 Z" fill="#1b75bb" fill-opacity="1" stroke="none"/>
   <path id="Path-7" d="M488 197 L488 272 505.5 272 523 272 523 197 523 122 505.5 122 488 122 Z" fill="#1b75bb" fill-opacity="1" stroke="none"/>
   <path id="Path-8" d="M655.1 130.6 C637.7 135.3 623.3 147.5 615 164.5 609.6 175.6 607.9 182.6 607.3 196.5 606.7 210.6 608.4 222.6 612.9 234.9 622.2 260.4 643.8 275 672.5 275 696.9 275 716.1 264.6 725.3 246.4 728.4 240.3 732 230.2 732 227.8 732 227.3 727 227.1 720.8 227.2 L709.7 227.5 707.8 233.2 C702.6 248.6 685.7 257.2 666.1 254.1 653 252.1 643.3 246 637.3 235.9 633.6 229.6 631 220.6 631 213.8 L631 209 682.6 209 734.3 209 733.7 198.2 C733.3 192.3 732.4 184.5 731.6 180.8 726 155.4 709.3 136 688.4 130.6 680.6 128.6 662.5 128.6 655.1 130.6 Z M686.3 152.3 C693.3 155.5 700.8 162.4 704.3 168.8 706.7 173.2 710 183.6 710 186.7 710 187.7 702.1 188 670.5 188 L631 188 631 185.6 C631 180.6 635.1 170 639.4 164.3 644.7 157.1 652.6 151.9 661.5 149.6 662.6 149.3 667.4 149.2 672.1 149.4 678.8 149.7 682 150.3 686.3 152.3 Z" fill="#bec1d4" fill-opacity="1" stroke="none"/>
   <path id="Path-9" d="M955.3 130.4 C934.7 135.4 918.4 152.8 911.8 176.8 910 183.2 909.6 187.4 909.6 202 909.5 217.3 909.8 220.5 911.8 227.3 917.1 245.8 927.8 259.8 942.1 266.9 952.4 272.1 958.9 273.3 972.5 272.8 981.4 272.4 984.7 271.8 989.9 269.7 998.5 266.1 1005.4 260.7 1010.2 253.5 L1014.3 247.5 1013.7 260 C1012.7 280.3 1009.1 291 1000.4 299.7 997.9 302.1 993.3 305.4 990.2 306.8 985 309.3 983.5 309.5 972 309.5 961.5 309.4 958.6 309 953.9 307.2 944.7 303.6 937 295.7 937 290 937 288.1 936.4 288 925.4 288 L913.8 288 914.5 292.7 C916.7 308.4 930 321 949.4 326 964.2 329.8 983.4 329.5 996.5 325.3 1015.1 319.4 1025.4 308.5 1031.7 288.5 L1034.5 279.5 1034.8 204.2 1035.1 129 1024.5 129 1014 129 1014 140.6 1014 152.2 1009.6 146.2 C1004.3 139.1 998.1 134.5 989.1 131.4 983.7 129.4 980.6 129.1 971.5 129.1 965.5 129.1 958.1 129.7 955.3 130.4 Z M989.2 152.2 C1004.4 159.2 1012.5 175.8 1012.3 199.5 1012.2 224.6 1003.5 242.2 987.2 250.2 983.2 252.2 981 252.5 972 252.5 962.6 252.5 960.9 252.2 955.9 249.7 940.9 242.4 933 225.2 933 200 933 181.5 937.1 168.9 946.1 159.8 954.2 151.6 961.6 148.9 975 149.3 981.7 149.6 984.7 150.2 989.2 152.2 Z" fill="#bec1d4" fill-opacity="1" stroke="none"/>
   <path id="Path-10" d="M1109.5 130.9 C1095.6 134.9 1082.4 144.7 1074.3 156.8 1069.5 164.1 1064.5 177.4 1062.9 187.3 1061.3 198 1062.3 214 1065.4 226.2 1072 251.9 1088.5 268.6 1112.2 273.4 1139.8 279.1 1167 269.4 1178.8 249.7 1182 244.4 1187 231.4 1187 228.4 1187 226.5 1165.1 226.3 1164.6 228.2 1159.2 246.9 1144.8 256.5 1124.7 254.6 1102.4 252.5 1088.2 238.2 1086.3 215.8 L1085.7 209 1137.5 209 1189.3 209 1188.7 197.2 C1187 162.8 1169.7 137.4 1143.3 130.5 1135.3 128.4 1117.3 128.6 1109.5 130.9 Z M1141.2 152.2 C1147.5 155.1 1155.1 161.6 1158.6 167.2 1161.4 171.6 1165 181.9 1165 185.5 L1165 188 1125.5 188 C1080.8 188 1084.8 188.9 1087.4 179.4 1091.1 165.3 1100.9 154.6 1113.6 150.6 1121.2 148.2 1134 148.9 1141.2 152.2 Z" fill="#bec1d4" fill-opacity="1" stroke="none"/>
   <path id="Path-11" d="M4.5 132.5 C2.2 134.7 2 135.7 2 144.4 2 153.7 2 153.9 5.1 156.4 L8.2 159 37.1 159 C67.4 159 70.8 158.6 72.4 154.5 72.7 153.6 73 148.8 73 143.9 73 135.7 72.8 134.7 70.5 132.5 L68.1 130 37.5 130 6.9 130 Z" fill="#1b75bb" fill-opacity="1" stroke="none"/>
   <path id="Path-12" d="M5.1 188.6 C2 191.1 2 191.3 2 200.6 2 209.3 2.2 210.3 4.5 212.5 L6.9 215 37.5 215 68.1 215 70.5 212.5 C72.8 210.3 73 209.3 73 200.5 73 191.4 72.9 190.8 70.4 188.5 L67.7 186 37.9 186 8.2 186 Z" fill="#1b75bb" fill-opacity="1" stroke="none"/>
  </g>
 </g>
</svg>
